<?xml version="1.0" standalone="no"?>
<!DOCTYPE svg PUBLIC "-//W3C//DTD SVG 20010904//EN"
 "http://www.w3.org/TR/2001/REC-SVG-20010904/DTD/svg10.dtd">
<svg version="1.0" xmlns="http://www.w3.org/2000/svg"
 width="124.000000pt" height="131.000000pt" viewBox="0 0 124.000000 131.000000"
 preserveAspectRatio="xMidYMid meet">

<g transform="translate(0.000000,131.000000) scale(0.100000,-0.100000)"
fill="white" stroke="none">
<path d="M205 1202 c-16 -10 -43 -38 -60 -62 l-30 -43 0 -408 0 -407 31 -39
c55 -68 126 -118 205 -144 105 -34 280 -33 424 5 132 34 304 119 325 161 12
24 16 83 18 278 4 263 0 287 -46 336 -10 10 -31 33 -48 52 -16 19 -47 48 -69
64 -54 42 -130 111 -189 172 l-51 53 -240 0 c-215 0 -243 -2 -270 -18z m105
-115 c0 -5 30 -42 68 -83 l67 -74 165 0 c91 0 171 4 178 9 8 5 12 21 10 37
l-3 29 -142 1 c-125 2 -146 5 -180 24 -37 21 -100 97 -89 108 3 3 74 0 157 -6
110 -8 156 -15 169 -27 9 -8 22 -15 28 -15 7 0 12 -5 12 -10 0 -6 9 -14 19
-18 11 -4 50 -36 88 -72 37 -36 90 -83 116 -105 74 -61 75 -63 83 -334 7 -231
2 -251 -70 -285 -152 -71 -212 -91 -296 -98 -47 -4 -124 -10 -171 -14 -124
-10 -177 13 -294 124 l-35 32 0 389 0 389 37 32 37 33 23 -29 c13 -16 23 -33
23 -37z"/>
<path d="M220 770 l0 -40 50 0 c28 0 50 -4 50 -10 0 -5 24 -23 53 -40 28 -16
58 -38 64 -49 32 -52 53 -129 53 -194 0 -65 -2 -72 -45 -131 -43 -61 -54 -90
-37 -99 4 -2 24 -7 45 -11 32 -6 37 -4 37 12 0 11 7 25 15 32 8 7 15 19 15 27
0 8 12 24 26 36 26 20 26 21 22 136 -3 111 -5 119 -42 193 -68 136 -127 178
-250 178 l-56 0 0 -40z"/>
</g>
</svg>
