<?xml version="1.0" standalone="no"?>
<!DOCTYPE svg PUBLIC "-//W3C//DTD SVG 20010904//EN"
 "http://www.w3.org/TR/2001/REC-SVG-20010904/DTD/svg10.dtd">
<svg version="1.0" xmlns="http://www.w3.org/2000/svg"
 width="236.000000pt" height="158.000000pt" viewBox="0 0 236.000000 158.000000"
 preserveAspectRatio="xMidYMid meet">

<g transform="translate(0.000000,158.000000) scale(0.100000,-0.100000)"
fill="white" stroke="none">
<path d="M1600 1510 c0 -5 -8 -10 -18 -10 -10 0 -24 -9 -32 -20 -8 -12 -26
-20 -42 -20 -15 0 -28 -4 -28 -10 0 -5 -13 -10 -30 -10 -16 0 -30 -4 -30 -9 0
-5 -22 -11 -50 -15 -27 -4 -50 -11 -50 -16 0 -6 -9 -10 -20 -10 -11 0 -20 -4
-20 -10 0 -5 -8 -10 -18 -10 -10 0 -24 -9 -32 -20 -8 -12 -26 -20 -42 -20 -22
0 -49 -20 -123 -95 -57 -56 -103 -95 -115 -95 -11 0 -20 -4 -20 -10 0 -5 -13
-10 -30 -10 -16 0 -30 4 -30 9 0 5 -34 12 -75 16 -41 4 -75 11 -75 16 0 5 -27
9 -60 9 -33 0 -60 4 -60 10 0 6 -18 10 -40 10 -22 0 -40 5 -40 10 0 6 -62 10
-165 10 -103 0 -165 -4 -165 -10 0 -5 -9 -10 -20 -10 -11 0 -20 -4 -20 -10 0
-5 -9 -10 -20 -10 -11 0 -20 -7 -20 -15 0 -8 -4 -15 -10 -15 -5 0 -10 -13 -10
-30 0 -16 -4 -30 -10 -30 -5 0 -10 -18 -10 -40 0 -22 -4 -40 -10 -40 -6 0 -10
-38 -10 -95 0 -57 4 -95 10 -95 6 0 10 -18 10 -40 0 -22 5 -40 10 -40 6 0 10
-13 10 -30 0 -16 5 -30 10 -30 6 0 10 -9 10 -20 0 -11 5 -20 10 -20 6 0 10 -6
10 -13 0 -7 9 -19 20 -27 11 -8 20 -20 20 -28 0 -17 25 -42 42 -42 8 0 20 -9
28 -20 8 -11 18 -20 23 -20 5 0 26 -18 47 -40 21 -22 44 -40 50 -40 7 0 24
-13 39 -29 18 -19 40 -30 72 -35 27 -4 51 -14 59 -26 8 -12 26 -20 42 -20 15
0 28 -4 28 -10 0 -5 9 -10 20 -10 11 0 20 -4 20 -10 0 -5 18 -10 40 -10 22 0
40 -4 40 -10 0 -5 16 -10 35 -10 19 0 35 -4 35 -10 0 -5 23 -10 50 -10 28 0
50 -4 50 -10 0 -6 30 -10 70 -10 40 0 70 -4 70 -10 0 -6 58 -10 155 -10 97 0
155 4 155 10 0 6 30 10 70 10 40 0 70 4 70 10 0 6 23 10 50 10 28 0 50 5 50
10 0 6 14 10 30 10 17 0 30 5 30 10 0 6 20 10 45 10 25 0 45 5 45 10 0 6 9 10
20 10 11 0 20 5 20 10 0 6 14 10 30 10 17 0 30 5 30 10 0 6 9 10 20 10 11 0
20 4 20 9 0 5 17 12 38 16 21 3 45 15 52 26 8 10 20 19 28 19 7 0 40 27 72 60
32 33 64 60 69 60 6 0 11 5 11 10 0 6 7 10 16 10 19 0 44 24 44 42 0 8 9 20
20 28 11 8 20 20 20 27 0 7 5 13 10 13 6 0 10 9 10 20 0 11 5 20 10 20 6 0 10
14 10 30 0 17 5 30 10 30 6 0 10 18 10 40 0 22 5 40 10 40 6 0 10 38 10 95 0
57 -4 95 -10 95 -5 0 -10 18 -10 40 0 22 -4 40 -10 40 -5 0 -10 14 -10 30 0
17 -4 30 -10 30 -5 0 -10 7 -10 15 0 8 -4 15 -10 15 -5 0 -10 8 -10 18 0 10
-9 24 -20 32 -11 8 -20 20 -20 28 0 18 -25 42 -44 42 -9 0 -16 5 -16 10 0 6
-5 10 -11 10 -6 0 -31 22 -57 48 -26 27 -60 52 -75 56 -15 3 -27 11 -27 16 0
6 -9 10 -20 10 -11 0 -20 5 -20 10 0 6 -9 10 -20 10 -11 0 -20 5 -20 10 0 6
-9 10 -20 10 -11 0 -20 5 -20 10 0 6 -18 10 -40 10 -22 0 -40 5 -40 10 0 6
-35 10 -85 10 -50 0 -85 -4 -85 -10z m240 -160 c21 -22 46 -40 54 -40 9 0 16
-4 16 -10 0 -5 9 -10 20 -10 11 0 20 -4 20 -10 0 -5 7 -10 15 -10 20 0 125
-105 125 -125 0 -16 23 -45 35 -45 3 0 17 -11 30 -25 24 -23 25 -30 25 -145 0
-73 -4 -120 -10 -120 -5 0 -10 -9 -10 -20 0 -11 -4 -20 -10 -20 -5 0 -10 -9
-10 -20 0 -11 -5 -20 -11 -20 -21 0 -39 -29 -39 -62 0 -23 -7 -38 -21 -48 -43
-30 -99 -89 -99 -104 0 -9 -8 -16 -20 -16 -11 0 -20 -4 -20 -10 0 -5 -12 -10
-26 -10 -16 0 -37 -12 -54 -30 -15 -16 -35 -30 -44 -30 -9 0 -16 -4 -16 -10 0
-5 -18 -10 -40 -10 -22 0 -40 -4 -40 -10 0 -5 -20 -10 -45 -10 -25 0 -45 -4
-45 -10 0 -5 -9 -10 -20 -10 -11 0 -20 -4 -20 -10 0 -6 -36 -10 -89 -10 -66 0
-93 -4 -105 -15 -11 -11 -39 -15 -115 -15 -56 0 -101 4 -101 9 0 5 -44 11 -97
13 -63 3 -98 8 -101 16 -2 7 -24 12 -53 12 -27 0 -49 5 -49 10 0 6 -9 10 -20
10 -11 0 -20 5 -20 10 0 6 -25 10 -55 10 -30 0 -55 5 -55 10 0 6 -18 10 -40
10 -22 0 -40 5 -40 10 0 6 -8 10 -18 10 -10 0 -24 9 -32 20 -8 11 -22 20 -32
20 -10 0 -18 5 -18 10 0 6 -9 10 -20 10 -11 0 -20 5 -20 10 0 6 -12 10 -26 10
-16 0 -37 12 -54 30 -15 17 -35 30 -44 30 -9 0 -16 4 -16 9 0 5 -9 13 -20 16
-11 3 -20 15 -20 26 0 12 -7 19 -20 19 -13 0 -20 7 -20 20 0 11 -7 20 -15 20
-10 0 -15 10 -15 28 0 16 -8 34 -20 42 -18 13 -20 26 -20 107 0 55 4 93 10 93
6 0 10 16 10 36 0 61 10 64 189 64 101 0 161 -4 161 -10 0 -5 18 -10 40 -10
22 0 40 -4 40 -10 0 -5 9 -10 20 -10 11 0 20 -4 20 -10 0 -5 25 -10 55 -10 30
0 55 -4 55 -10 0 -5 14 -10 30 -10 17 0 30 -4 30 -10 0 -6 27 -10 60 -10 33 0
60 -4 60 -10 0 -5 14 -10 30 -10 17 0 30 -4 30 -10 0 -6 92 -10 255 -10 163 0
255 4 255 10 0 6 31 10 73 10 61 0 75 3 87 20 10 14 26 20 52 20 21 0 38 5 38
10 0 6 14 10 30 10 17 0 30 5 30 10 0 6 14 10 30 10 17 0 30 5 30 10 0 6 9 10
20 10 30 0 28 66 -2 92 -20 17 -32 19 -88 14 -36 -4 -66 -11 -68 -16 -2 -6
-12 -10 -23 -10 -10 0 -19 -4 -19 -10 0 -5 -25 -10 -55 -10 -30 0 -55 -4 -55
-10 0 -5 -22 -10 -50 -10 -27 0 -50 -4 -50 -10 0 -6 -60 -10 -160 -10 -100 0
-160 4 -160 10 0 6 -16 10 -35 10 -32 0 -35 2 -35 30 0 17 5 30 10 30 6 0 10
7 10 15 0 9 9 15 25 15 14 0 25 5 25 10 0 6 13 10 28 10 16 0 34 8 42 20 10
14 26 20 50 20 24 0 40 6 50 20 8 11 21 20 28 20 8 0 27 14 42 30 15 17 35 30
44 30 9 0 16 5 16 10 0 6 13 10 28 10 16 0 34 8 42 20 13 18 26 20 113 20 l99
0 38 -40z"/>
</g>
</svg>
