<?xml version="1.0" standalone="no"?>
<!DOCTYPE svg PUBLIC "-//W3C//DTD SVG 20010904//EN"
 "http://www.w3.org/TR/2001/REC-SVG-20010904/DTD/svg10.dtd">
<svg version="1.0" xmlns="http://www.w3.org/2000/svg"
 width="263.000000pt" height="117.000000pt" viewBox="0 0 263.000000 117.000000"
 preserveAspectRatio="xMidYMid meet">

<g transform="translate(0.000000,117.000000) scale(0.100000,-0.100000)"
fill="black" stroke="none">
<path d="M2204 1008 c-30 -14 -48 -52 -47 -96 3 -85 121 -126 184 -63 65 66
20 172 -73 170 -24 0 -53 -5 -64 -11z"/>
<path d="M1800 958 c-60 -31 -90 -86 -99 -181 l-6 -72 -42 -3 c-53 -4 -64 -18
-65 -82 0 -63 12 -78 65 -82 l42 -3 3 -192 c2 -184 3 -193 24 -204 26 -14 144
-7 160 9 9 9 15 69 18 200 l5 187 126 3 127 3 4 -158 c4 -171 11 -200 60 -236
35 -26 102 -27 154 -1 73 36 86 148 17 156 l-28 3 -3 188 -2 188 -26 9 c-14 6
-117 10 -230 10 l-204 0 0 48 c0 26 5 53 12 60 17 17 61 15 102 -5 50 -23 70
-6 63 56 -4 36 -12 52 -37 72 -61 51 -168 63 -240 27z"/>
<path d="M325 924 c-72 -10 -134 -26 -144 -38 -7 -8 -11 -140 -11 -371 -2
-413 -9 -385 95 -385 90 0 94 5 97 134 l3 110 108 -3 c102 -2 110 -1 177 30
55 25 76 41 99 76 56 84 64 193 23 287 -23 51 -103 117 -173 141 -43 16 -214
28 -274 19z m200 -168 c92 -39 100 -194 11 -231 -41 -17 -113 -20 -150 -5 -26
9 -26 11 -26 120 0 105 1 111 23 120 34 14 104 12 142 -4z"/>
<path d="M943 711 c-72 -33 -75 -45 -71 -253 3 -163 6 -187 25 -223 39 -75 96
-105 195 -105 62 0 132 24 182 63 18 13 23 11 58 -26 l38 -40 71 6 c90 8 131
30 143 80 6 24 6 48 0 65 -8 23 -15 27 -49 27 l-40 0 -3 189 c-2 179 -4 190
-24 208 -25 21 -146 26 -166 6 -8 -8 -12 -64 -12 -184 l0 -172 -30 -26 c-17
-14 -46 -28 -64 -32 -42 -7 -104 13 -119 41 -7 12 -14 92 -17 205 l-5 185 -35
3 c-19 1 -54 -7 -77 -17z"/>
</g>
</svg>
