<?xml version="1.0" encoding="iso-8859-1"?>
<!-- Uploaded to: SVG Repo, www.svgrepo.com, Generator: SVG Repo Mixer Tools -->
<svg fill="white" height="800px" width="800px" version="1.1" id="Layer_1" xmlns="http://www.w3.org/2000/svg" xmlns:xlink="http://www.w3.org/1999/xlink" 
	 viewBox="0 0 512 512" xml:space="preserve">
<g>
	<g>
		<path d="M273.258,52.432V0h-34.517v52.432C123.062,61.274,31.64,158.229,31.64,276.135l29.418,12.248
			c0.181-0.18,18.717-18.001,39.616-18.001c20.908,0,39.485,17.874,39.616,18.001l12.104,12.123l12.159-12.071
			c0.186-0.18,18.763-18.053,39.671-18.053c14.331,0,27.565,8.398,34.517,13.722v176.121c0,28.55,23.226,51.775,51.775,51.775
			s51.775-23.225,51.775-51.775h-34.517c0,9.517-7.742,17.258-17.258,17.258s-17.258-7.741-17.258-17.258V284.107
			c6.972-5.342,20.197-13.725,34.517-13.725c20.908,0,39.485,17.874,39.616,18.001l12.159,12.069l12.159-12.069
			c0.181-0.18,18.717-18.001,39.616-18.001c20.908,0,39.485,17.874,39.616,18.001l29.418-12.248
			C480.36,158.229,388.938,61.274,273.258,52.432z M411.326,235.865c-21.6,0-40.271,10.062-51.775,18.136
			c-11.504-8.075-30.176-18.136-51.775-18.136c-21.599,0-40.271,10.062-51.775,18.136c-11.504-8.075-30.176-18.136-51.775-18.136
			s-40.271,10.062-51.775,18.136c-11.505-8.075-30.176-18.136-51.775-18.136c-11.586,0-22.32,2.903-31.568,6.833
			C84.948,153.908,162.726,86.292,256,86.292s171.051,67.616,186.893,156.406C433.646,238.768,422.912,235.865,411.326,235.865z"/>
	</g>
</g>
</svg>